<svg width="97" height="68" viewBox="0 0 97 68" fill="none" xmlns="http://www.w3.org/2000/svg">
<g clip-path="url(#clip0_1185_4888)">
<mask id="mask0_1185_4888" style="mask-type:luminance" maskUnits="userSpaceOnUse" x="0" y="-1" width="97" height="69">
<path d="M96.8552 -0.000976562H0V67.1614H96.8552V-0.000976562Z" fill="white" style="fill:white;fill-opacity:1;"/>
</mask>
<g mask="url(#mask0_1185_4888)">
<path d="M7.86299 56.7145H8.21192V57.1559H7.81378C7.35525 57.1559 7.03987 57.0253 6.8408 56.6649C6.64173 56.933 6.33306 57.0726 5.9215 57.0726C5.11851 57.0726 4.71589 56.5613 4.71589 55.5477C4.71589 55.0995 4.81207 54.7481 4.98207 54.4981H4.32447C3.78988 54.4981 3.46779 54.6085 3.44766 55.4982V58.3204L2.98242 58.4871V55.3946C3.00255 54.4148 3.39398 54.0273 4.40051 54.0273H5.9215C6.6887 54.0273 7.11368 54.5657 7.11368 55.4711C7.11368 56.2009 7.07342 56.7122 7.86075 56.7122M5.9215 54.4756C5.43389 54.4756 5.18785 54.8337 5.18785 55.5455C5.18785 56.2572 5.43389 56.6221 5.9215 56.6221C6.40911 56.6221 6.64844 56.264 6.64844 55.5455C6.64844 54.827 6.36661 54.4756 5.9215 54.4756Z" fill="#B2B2B2" style="fill:#B2B2B2;fill:color(display-p3 0.6990 0.6990 0.6990);fill-opacity:1;"/>
<path d="M17.93 57.1565H17.5945C17.2165 57.1565 16.9369 57.0529 16.7043 56.8119C16.5455 57.3232 16.163 57.6137 15.5949 57.6137C15.0268 57.6137 14.6823 57.3502 14.4922 56.8749C14.2931 57.0619 14.0113 57.1587 13.6825 57.1587H8.11523V56.7173H13.6355C14.0672 56.7173 14.3222 56.4763 14.3692 56.0551C14.396 55.2329 14.7382 54.6338 15.5971 54.6338C16.3643 54.6338 16.7423 55.109 16.8027 55.9041C16.8027 56.4492 17.0488 56.7263 17.5565 56.7195H17.9323V57.161L17.93 57.1565ZM15.5926 55.0708C15.0715 55.0708 14.859 55.4019 14.859 56.1136C14.859 56.8254 15.0715 57.17 15.5926 57.17C16.1138 57.17 16.3129 56.8254 16.3129 56.1136C16.3129 55.4019 16.1138 55.0708 15.5926 55.0708Z" fill="#B2B2B2" style="fill:#B2B2B2;fill:color(display-p3 0.6990 0.6990 0.6990);fill-opacity:1;"/>
<path d="M25.1705 57.1561H17.834V56.7146H21.3255C21.2159 56.5209 21.1623 56.2529 21.1623 55.9285C21.1623 54.7348 21.6633 54.0298 22.7392 53.9757C23.5064 53.9329 24.1707 54.4307 24.2668 55.1695C24.2937 55.3564 24.2937 55.7348 24.2937 56.2957V56.7169H25.1705V57.1584V57.1561ZM22.1419 55.147C21.7796 55.147 21.6007 55.4082 21.6007 55.9263C21.6007 56.4106 21.7595 56.7124 22.1419 56.7124C22.4909 56.7124 22.6631 56.4511 22.6631 55.9263C22.6631 55.4015 22.4909 55.147 22.1419 55.147ZM23.8217 56.7124V56.2912C23.8217 55.7664 23.815 55.4488 23.7815 55.2618C23.6853 54.7505 23.2603 54.4127 22.7392 54.4127C22.4439 54.4127 22.1352 54.496 21.9362 54.737C21.9988 54.71 22.1017 54.7032 22.1419 54.7032C22.7459 54.7032 23.1082 55.1042 23.1082 55.924C23.1082 56.2619 23.0389 56.5119 22.9159 56.7101H23.8217V56.7124Z" fill="#B2B2B2" style="fill:#B2B2B2;fill:color(display-p3 0.6990 0.6990 0.6990);fill-opacity:1;"/>
<path d="M29.1393 55.9626C29.1393 56.6676 28.6807 57.1563 27.9672 57.1563H25.1758V56.7149H27.9404C28.4347 56.7149 28.674 56.4536 28.674 55.9085V52.8655L29.1393 52.7056V55.9626Z" fill="#B2B2B2" style="fill:#B2B2B2;fill:color(display-p3 0.6990 0.6990 0.6990);fill-opacity:1;"/>
<path d="M30.3472 57.1561H29.873V52.8428L30.3472 52.7031V57.1561Z" fill="#B2B2B2" style="fill:#B2B2B2;fill:color(display-p3 0.6990 0.6990 0.6990);fill-opacity:1;"/>
<path d="M36.7054 55.9625C36.7054 56.6946 36.2178 57.1563 35.5334 57.1563H33.1692C32.4959 57.1563 32.0508 56.6946 32.0508 55.9625V55.0593L32.516 54.4737V55.9107C32.516 56.4558 32.7621 56.7171 33.2631 56.7171H35.5043C35.9897 56.7171 36.238 56.4558 36.238 55.9107V54.1854L36.7032 54.0322V55.9648L36.7054 55.9625ZM34.368 58.6407C34.1757 58.6407 34.0795 58.537 34.0795 58.3366C34.0795 58.1496 34.1757 58.0528 34.368 58.0528C34.5604 58.0528 34.6566 58.1496 34.6566 58.3366C34.6566 58.537 34.5604 58.6407 34.368 58.6407Z" fill="#B2B2B2" style="fill:#B2B2B2;fill:color(display-p3 0.6990 0.6990 0.6990);fill-opacity:1;"/>
<path d="M37.9061 52.6963V56.2911C37.9061 56.5749 38.0291 56.7123 38.2819 56.7123H38.9462V57.1538H38.2193C37.6981 57.1538 37.4297 56.8632 37.4297 56.2979V52.8404L37.9039 52.703V52.6963H37.9061Z" fill="#B2B2B2" style="fill:#B2B2B2;fill:color(display-p3 0.6990 0.6990 0.6990);fill-opacity:1;"/>
<path d="M48.5597 57.1561H38.8008V56.7147H47.0857V56.2597C47.0722 55.343 47.0163 54.424 45.9897 54.424C45.6609 54.424 45.2918 54.5884 44.9473 54.9218L44.6454 54.6042C45.0905 54.1897 45.5356 53.9893 45.9897 53.9893C47.3809 53.9893 47.58 55.0727 47.58 56.1223V56.7169H48.5597V57.1584V57.1561Z" fill="#B2B2B2" style="fill:#B2B2B2;fill:color(display-p3 0.6990 0.6990 0.6990);fill-opacity:1;"/>
<path d="M51.8253 54.7258L52.2906 54.5681V55.5547C52.7625 54.6019 53.6282 54.0703 54.3819 54.1266C55.2789 54.1897 55.923 54.906 55.9029 56.1898C55.8962 56.4173 55.8828 56.7417 55.8067 57.1561H48.4277V56.7146H51.8253V54.7258ZM55.4175 56.7146C55.4511 56.5299 55.46 56.3835 55.46 56.2529C55.4667 55.1492 55.0686 54.505 54.2186 54.4915C53.3553 54.478 52.3129 55.5479 52.2235 56.7146H55.4175Z" fill="#B2B2B2" style="fill:#B2B2B2;fill:color(display-p3 0.6990 0.6990 0.6990);fill-opacity:1;"/>
<path d="M57.428 53.2638L57.8932 53.1039V56.7145H58.2287C58.7163 56.7145 58.9624 56.4532 58.9624 55.9081V52.8651L59.4276 52.7052V55.9622C59.4276 56.6672 58.9758 57.1559 58.2623 57.1559H56.502L56.7279 56.7145H57.428V53.2638ZM58.1616 52.7592H56.8665L57.0925 52.525H57.2647V52.4484C57.258 52.1511 57.4503 51.9033 57.7657 51.9033C57.8887 51.9033 58.0341 51.9664 58.1213 52.0768L57.9514 52.2637C57.8954 52.1736 57.7993 52.1466 57.7389 52.1466C57.6024 52.1466 57.513 52.2637 57.513 52.4079V52.525H58.1638V52.7592H58.1616Z" fill="#B2B2B2" style="fill:#B2B2B2;fill:color(display-p3 0.6990 0.6990 0.6990);fill-opacity:1;"/>
<path d="M61.1387 56.6787C61.1387 56.2778 61.2281 55.8431 61.4048 55.3611L61.9126 55.0029C61.6733 55.6314 61.5905 56.1832 61.5905 56.5548C61.5905 57.3837 61.9618 58.0189 62.7983 58.0189C63.4761 58.0189 64.0039 57.7351 64.0375 57.1562C63.5432 57.1562 63.2971 56.9287 63.1741 56.5909L63.3933 56.0999C63.5521 56.5075 63.7914 56.7148 64.127 56.7148H64.5117V57.1562C64.5117 57.9018 63.8742 58.4874 62.7983 58.4874C61.7225 58.4874 61.1387 57.7283 61.1387 56.6787ZM62.427 59.965C62.2347 59.965 62.1318 59.8681 62.1318 59.6744C62.1318 59.4807 62.2347 59.3839 62.427 59.3839C62.6194 59.3839 62.7089 59.4807 62.7089 59.6744C62.7089 59.8681 62.6194 59.965 62.427 59.965ZM63.3329 59.965C63.1406 59.965 63.0511 59.8681 63.0511 59.6744C63.0511 59.4807 63.1406 59.3839 63.3329 59.3839C63.5253 59.3839 63.6282 59.4807 63.6282 59.6744C63.6282 59.8681 63.5253 59.965 63.3329 59.965Z" fill="#B2B2B2" style="fill:#B2B2B2;fill:color(display-p3 0.6990 0.6990 0.6990);fill-opacity:1;"/>
<path d="M71.9348 55.9624C71.9348 56.6674 71.4763 57.1561 70.7628 57.1561H64.4082V56.7147H70.7359C71.228 56.7147 71.4696 56.4534 71.4696 55.9083V54.1897L71.9348 54.0298V55.9624ZM71.228 58.6337C71.0357 58.6337 70.9328 58.5369 70.9328 58.3431C70.9328 58.1494 71.0357 58.0526 71.228 58.0526C71.4204 58.0526 71.5098 58.1494 71.5098 58.3431C71.5098 58.5369 71.4204 58.6337 71.228 58.6337Z" fill="#B2B2B2" style="fill:#B2B2B2;fill:color(display-p3 0.6990 0.6990 0.6990);fill-opacity:1;"/>
<path d="M75.0291 57.1562H72.5352L72.8304 56.7147H74.5572V55.4309C74.5572 54.8858 74.2485 54.6222 73.8168 54.6222C73.4545 54.6222 73.1301 54.8497 72.8975 55.1966V54.6222C73.1368 54.3474 73.4522 54.1943 73.8168 54.1808C74.537 54.1537 75.0291 54.6358 75.0291 55.3813V57.1562Z" fill="#B2B2B2" style="fill:#B2B2B2;fill:color(display-p3 0.6990 0.6990 0.6990);fill-opacity:1;"/>
<path d="M80.1102 55.0569C79.9581 54.6852 79.6718 54.4713 79.3497 54.4713C78.8554 54.4713 78.6093 54.7325 78.6093 55.2799V55.6943C79.1372 55.6943 79.7344 55.6876 80.2466 55.6876L80.2533 57.1787C80.2265 58.0548 79.6561 58.4896 78.54 58.4896C77.1957 58.4896 76.8266 57.6809 76.7305 56.4038L77.189 56.2529C77.189 57.4805 77.5737 58.0548 78.5735 58.0188C79.3497 58.0188 79.7814 57.708 79.7814 57.1426V56.1358H78.1351V55.2236C78.1351 54.4915 78.5735 54.0298 79.3072 54.0298C79.6986 54.0298 80.0118 54.1897 80.2735 54.478L80.1102 55.0569ZM78.1843 59.9649C77.992 59.9649 77.8891 59.868 77.8891 59.6743C77.8891 59.4806 77.992 59.3838 78.1843 59.3838C78.3767 59.3838 78.4662 59.4806 78.4662 59.6743C78.4662 59.868 78.3767 59.9649 78.1843 59.9649ZM79.0902 59.9649C78.8979 59.9649 78.8084 59.868 78.8084 59.6743C78.8084 59.4806 78.8979 59.3838 79.0902 59.3838C79.2826 59.3838 79.3855 59.4806 79.3855 59.6743C79.3855 59.868 79.2826 59.9649 79.0902 59.9649Z" fill="#B2B2B2" style="fill:#B2B2B2;fill:color(display-p3 0.6990 0.6990 0.6990);fill-opacity:1;"/>
<path d="M83.3673 57.1562H80.8711L81.1663 56.7147H82.8931V55.4309C82.8931 54.8858 82.5844 54.6222 82.1527 54.6222C81.7904 54.6222 81.4661 54.8497 81.2357 55.1966V54.6222C81.475 54.3474 81.7904 54.1943 82.1527 54.1808C82.873 54.1537 83.3673 54.6358 83.3673 55.3813V57.1562Z" fill="#B2B2B2" style="fill:#B2B2B2;fill:color(display-p3 0.6990 0.6990 0.6990);fill-opacity:1;"/>
<path d="M84.5752 52.6963V56.2911C84.5752 56.5749 84.6982 56.7123 84.9532 56.7123H92.6811V57.1538H84.8928C84.3716 57.1538 84.1055 56.8632 84.1055 56.2979V52.8404L84.5774 52.703V52.6963H84.5752Z" fill="#B2B2B2" style="fill:#B2B2B2;fill:color(display-p3 0.6990 0.6990 0.6990);fill-opacity:1;"/>
<path d="M94.1192 55.9622C94.1192 56.6672 93.6607 57.156 92.9472 57.156H92.5781V56.7145H92.9203C93.4147 56.7145 93.654 56.4532 93.654 55.9081V54.1895L94.1192 54.0296V55.9622ZM92.9807 53.1399C92.7884 53.1399 92.6989 53.0431 92.6989 52.8493C92.6989 52.6556 92.7884 52.561 92.9807 52.561C93.1731 52.561 93.276 52.6579 93.276 52.8493C93.276 53.0408 93.1731 53.1399 92.9807 53.1399Z" fill="#B2B2B2" style="fill:#B2B2B2;fill:color(display-p3 0.6990 0.6990 0.6990);fill-opacity:1;"/>
<path d="M47.3622 14.7145C48.3351 15.8745 47.398 18.2823 45.2686 20.0932C43.1392 21.9042 40.6251 22.4312 39.6521 21.269C38.6791 20.1068 39.6163 17.6989 41.7435 15.8902C43.8729 14.0793 46.387 13.5545 47.3599 14.7145" fill="#B2B2B2" style="fill:#B2B2B2;fill:color(display-p3 0.6990 0.6990 0.6990);fill-opacity:1;"/>
<path d="M57.5187 39.6415C48.5941 41.4682 40.0274 42.4638 33.2456 42.4638C32.9034 42.4638 32.5679 42.4616 32.2346 42.4571C29.8838 42.421 27.9938 42.2656 26.4728 42.0291C23.0081 41.5201 20.8697 40.5245 20.5723 39.0559C20.3374 37.8892 21.2858 36.5422 23.1825 35.121C19.134 37.4071 16.9197 39.6686 17.2999 41.5493C18.2371 46.178 34.525 46.7502 53.6782 42.8242C68.5257 39.7834 80.7361 34.934 85.044 30.749C78.8057 34.0713 68.642 37.3644 57.5187 39.6415Z" fill="#B2B2B2" style="fill:#B2B2B2;fill:color(display-p3 0.6990 0.6990 0.6990);fill-opacity:1;"/>
<path d="M17.4267 1.77197L18.2118 5.14383L21.4171 6.68448L18.4713 8.15531L18.2677 11.5182L15.6619 9.05402L12.3314 9.59009L13.6668 6.59664L11.8125 3.56714L15.2437 4.1798L17.4267 1.77197Z" fill="#787878" style="fill:#787878;fill:color(display-p3 0.4706 0.4706 0.4706);fill-opacity:1;"/>
</g>
<mask id="mask1_1185_4888" style="mask-type:luminance" maskUnits="userSpaceOnUse" x="18" y="12" width="42" height="30">
<path d="M41.2492 41.514C46.2438 41.0703 51.7485 40.2482 57.4007 39.0904C57.6177 39.0454 57.8346 39.0003 58.0516 38.9553C55.7992 35.3311 51.3995 26.1458 59.964 20.0418C57.3 19.9652 54.1798 20.3594 50.941 21.7852C48.4582 23.1861 45.7495 25.3732 43.1102 28.7766C29.9358 24.0083 18.4121 12.1426 18.4121 12.1426C18.4121 12.1426 24.2008 30.9277 41.2492 41.5118" fill="white" style="fill:white;fill-opacity:1;"/>
</mask>
<g mask="url(#mask1_1185_4888)">
<path d="M59.9963 -6.00007L14.3555 13.8223L31.479 53.8036L77.1199 33.9813L59.9963 -6.00007Z" fill="url(#paint0_linear_1185_4888)" style=""/>
</g>
<path d="M62.9803 19.5729C65.6442 20.0009 67.8317 20.7937 69.2923 21.4402C66.8028 19.0931 59.2248 13.4824 50.043 21.3703C54.9213 19.0413 59.5849 19.0278 62.9803 19.5707" fill="#949494" style="fill:#949494;fill:color(display-p3 0.5804 0.5804 0.5804);fill-opacity:1;"/>
<path d="M2.86133 61.2606H3.99088C4.74242 61.2606 5.447 61.7246 5.447 62.7021C5.447 63.6796 4.61717 64.1436 3.93049 64.1436H2.86133V61.2583V61.2606ZM3.75155 63.6819C4.39126 63.6819 4.91242 63.4049 4.91242 62.7044C4.91242 62.0039 4.45836 61.7268 3.83655 61.7268H3.3713V63.6819H3.75155Z" fill="#B2B2B2" style="fill:#B2B2B2;fill:color(display-p3 0.6990 0.6990 0.6990);fill-opacity:1;"/>
<path d="M8.22405 63.0871C8.22405 63.7854 7.72749 64.2201 7.07213 64.2201C6.41676 64.2201 5.91797 63.7854 5.91797 63.0871V61.2627H6.42795V63.0714C6.42795 63.3574 6.58228 63.7313 7.07213 63.7313C7.56197 63.7313 7.71631 63.3552 7.71631 63.0714V61.2627H8.22628V63.0871H8.22405Z" fill="#B2B2B2" style="fill:#B2B2B2;fill:color(display-p3 0.6990 0.6990 0.6990);fill-opacity:1;"/>
<path d="M8.85352 61.2606H9.96965C10.4036 61.2606 10.8487 61.461 10.8487 61.9858C10.8487 62.3124 10.6474 62.5287 10.3499 62.6165V62.6233C10.71 62.6638 10.9695 62.9499 10.9695 63.3193C10.9695 63.9477 10.4282 64.1436 9.88465 64.1436H8.85352V61.2583V61.2606ZM9.36349 62.4341H9.82873C10.1687 62.4341 10.3387 62.2876 10.3387 62.0714C10.3387 61.8237 10.1687 61.6998 9.784 61.6998H9.36349V62.4341ZM9.36349 63.7044H9.83321C10.0971 63.7044 10.4595 63.6594 10.4595 63.281C10.4595 62.9791 10.2649 62.8733 9.85334 62.8733H9.36349V63.7044Z" fill="#B2B2B2" style="fill:#B2B2B2;fill:color(display-p3 0.6990 0.6990 0.6990);fill-opacity:1;"/>
<path d="M12.4002 61.2603H12.8408L14.0755 64.1456H13.4917L13.2255 63.4856H11.9841L11.7247 64.1456H11.1543L12.4002 61.2603ZM13.0466 63.0442L12.6059 61.8707L12.1564 63.0442H13.0466Z" fill="#B2B2B2" style="fill:#B2B2B2;fill:color(display-p3 0.6990 0.6990 0.6990);fill-opacity:1;"/>
<path d="M14.3809 61.2603H14.8908V64.1456H14.3809V61.2603Z" fill="#B2B2B2" style="fill:#B2B2B2;fill:color(display-p3 0.6990 0.6990 0.6990);fill-opacity:1;"/>
<path d="M18.6829 61.9385C18.4727 61.7133 18.2781 61.6525 18.079 61.6525C17.4885 61.6525 17.0948 62.1075 17.0948 62.6841C17.0948 63.299 17.4885 63.7562 18.079 63.7562C18.3094 63.7562 18.5331 63.6504 18.7232 63.4048L19.1437 63.7067C18.8842 64.0648 18.4973 64.2202 18.0768 64.2202C17.1933 64.2202 16.5625 63.6166 16.5625 62.7156C16.5625 61.8146 17.1933 61.1885 18.0768 61.1885C18.466 61.1885 18.797 61.3146 19.0811 61.6435L18.6852 61.9363L18.6829 61.9385Z" fill="#B2B2B2" style="fill:#B2B2B2;fill:color(display-p3 0.6990 0.6990 0.6990);fill-opacity:1;"/>
<path d="M19.4827 61.2603H19.9927V63.6816H21.2095V64.1456H19.4805V61.2603H19.4827Z" fill="#B2B2B2" style="fill:#B2B2B2;fill:color(display-p3 0.6990 0.6990 0.6990);fill-opacity:1;"/>
<path d="M23.8803 63.0871C23.8803 63.7854 23.3837 64.2201 22.7261 64.2201C22.0685 64.2201 21.5742 63.7854 21.5742 63.0871V61.2627H22.0842V63.0714C22.0842 63.3574 22.2385 63.7313 22.7284 63.7313C23.2182 63.7313 23.3726 63.3552 23.3726 63.0714V61.2627H23.8825V63.0871H23.8803Z" fill="#B2B2B2" style="fill:#B2B2B2;fill:color(display-p3 0.6990 0.6990 0.6990);fill-opacity:1;"/>
<path d="M24.5078 61.2606H25.6239C26.0579 61.2606 26.503 61.461 26.503 61.9858C26.503 62.3124 26.3017 62.5287 26.0064 62.6165V62.6233C26.3665 62.6638 26.626 62.9499 26.626 63.3193C26.626 63.9477 26.0847 64.1436 25.5412 64.1436H24.51V61.2583L24.5078 61.2606ZM25.0178 62.4341H25.483C25.823 62.4341 25.993 62.2876 25.993 62.0714C25.993 61.8237 25.823 61.6998 25.4383 61.6998H25.0178V62.4341ZM25.0178 63.7044H25.4875C25.7492 63.7044 26.1138 63.6594 26.1138 63.281C26.1138 62.9791 25.9192 62.8733 25.5054 62.8733H25.0156V63.7044H25.0178Z" fill="#B2B2B2" style="fill:#B2B2B2;fill:color(display-p3 0.6990 0.6990 0.6990);fill-opacity:1;"/>
<path d="M28.3242 61.2606H30.174V61.7246H28.8342V62.4814H30.0957V62.9454H28.8342V64.1436H28.3242V61.2583V61.2606Z" fill="#B2B2B2" style="fill:#B2B2B2;fill:color(display-p3 0.6990 0.6990 0.6990);fill-opacity:1;"/>
<path d="M32.0084 61.1883C32.9031 61.1725 33.5339 61.7739 33.5339 62.6997C33.5339 63.6254 32.9031 64.2043 32.0084 64.22C31.1271 64.22 30.4941 63.6164 30.4941 62.7154C30.4941 61.8145 31.1249 61.1883 32.0084 61.1883ZM32.0129 63.756C32.6079 63.756 33.0015 63.2988 33.0015 62.6839C33.0015 62.1095 32.6079 61.6523 32.0129 61.6523C31.4179 61.6523 31.0287 62.1073 31.0287 62.6839C31.0287 63.2988 31.4224 63.756 32.0129 63.756Z" fill="#B2B2B2" style="fill:#B2B2B2;fill:color(display-p3 0.6990 0.6990 0.6990);fill-opacity:1;"/>
<path d="M34.0137 61.2606H35.009C35.5593 61.2606 36.0782 61.4385 36.0782 62.0872C36.0782 62.5039 35.8389 62.808 35.4139 62.8688L36.1744 64.1436H35.5593L34.8949 62.9206H34.5236V64.1436H34.0137V61.2583V61.2606ZM34.9196 62.4836C35.2059 62.4836 35.5436 62.4588 35.5436 62.0849C35.5436 61.7426 35.2282 61.702 34.9643 61.702H34.5236V62.4836H34.9196Z" fill="#B2B2B2" style="fill:#B2B2B2;fill:color(display-p3 0.6990 0.6990 0.6990);fill-opacity:1;"/>
<path d="M37.7637 61.2603H38.7277C39.2824 61.2603 39.7834 61.4562 39.7834 62.0959C39.7834 62.8212 39.2444 62.9518 38.6382 62.9518H38.2736V64.1456H37.7637V61.2603ZM38.5801 62.5103C38.8709 62.5103 39.2489 62.4946 39.2489 62.1027C39.2489 61.749 38.9134 61.6995 38.6382 61.6995H38.2736V62.5103H38.5801Z" fill="#B2B2B2" style="fill:#B2B2B2;fill:color(display-p3 0.6990 0.6990 0.6990);fill-opacity:1;"/>
<path d="M40.2305 61.2606H42.1295V61.7246H40.7404V62.4341H42.0556V62.8981H40.7404V63.6796H42.201V64.1436H40.2305V61.2583V61.2606Z" fill="#B2B2B2" style="fill:#B2B2B2;fill:color(display-p3 0.6990 0.6990 0.6990);fill-opacity:1;"/>
<path d="M44.0631 61.1883C44.9578 61.1725 45.5886 61.7739 45.5886 62.6997C45.5886 63.6254 44.9578 64.2043 44.0631 64.22C43.1818 64.22 42.5488 63.6164 42.5488 62.7154C42.5488 61.8145 43.1796 61.1883 44.0631 61.1883ZM44.0676 63.756C44.6625 63.756 45.054 63.2988 45.054 62.6839C45.054 62.1095 44.6625 61.6523 44.0676 61.6523C43.4726 61.6523 43.0834 62.1073 43.0834 62.6839C43.0834 63.2988 43.4771 63.756 44.0676 63.756Z" fill="#B2B2B2" style="fill:#B2B2B2;fill:color(display-p3 0.6990 0.6990 0.6990);fill-opacity:1;"/>
<path d="M46.0723 61.2603H47.0363C47.591 61.2603 48.092 61.4562 48.092 62.0959C48.092 62.8212 47.553 62.9518 46.9468 62.9518H46.5822V64.1456H46.0723V61.2603ZM46.8887 62.5103C47.1794 62.5103 47.5575 62.4946 47.5575 62.1027C47.5575 61.749 47.222 61.6995 46.9468 61.6995H46.5822V62.5103H46.8909H46.8887Z" fill="#B2B2B2" style="fill:#B2B2B2;fill:color(display-p3 0.6990 0.6990 0.6990);fill-opacity:1;"/>
<path d="M48.5449 61.2603H49.0549V63.6816H50.2739V64.1456H48.5449V61.2603Z" fill="#B2B2B2" style="fill:#B2B2B2;fill:color(display-p3 0.6990 0.6990 0.6990);fill-opacity:1;"/>
<path d="M50.6465 61.2601H52.5455V61.7241H51.1565V62.4336H52.4717V62.8976H51.1565V63.6792H52.6171V64.1432H50.6465V61.2578V61.2601Z" fill="#B2B2B2" style="fill:#B2B2B2;fill:color(display-p3 0.6990 0.6990 0.6990);fill-opacity:1;"/>
<path d="M55.6725 61.1883C56.5672 61.1725 57.1979 61.7739 57.1979 62.6997C57.1979 63.6254 56.5672 64.2043 55.6725 64.22C54.789 64.22 54.1582 63.6164 54.1582 62.7154C54.1582 61.8145 54.789 61.1883 55.6725 61.1883ZM55.6769 63.756C56.2719 63.756 56.6633 63.2988 56.6633 62.6839C56.6633 62.1095 56.2697 61.6523 55.6769 61.6523C55.0842 61.6523 54.6928 62.1073 54.6928 62.6839C54.6928 63.2988 55.0864 63.756 55.6769 63.756Z" fill="#B2B2B2" style="fill:#B2B2B2;fill:color(display-p3 0.6990 0.6990 0.6990);fill-opacity:1;"/>
<path d="M57.6816 61.2606H59.5314V61.7246H58.1916V62.4814H59.4531V62.9454H58.1916V64.1436H57.6816V61.2583V61.2606Z" fill="#B2B2B2" style="fill:#B2B2B2;fill:color(display-p3 0.6990 0.6990 0.6990);fill-opacity:1;"/>
<path d="M61.2012 61.2606H62.3307C63.0823 61.2606 63.7868 61.7246 63.7868 62.7021C63.7868 63.6796 62.957 64.1436 62.2703 64.1436H61.2034V61.2583L61.2012 61.2606ZM62.0914 63.6819C62.7311 63.6819 63.2523 63.4049 63.2523 62.7044C63.2523 62.0039 62.7982 61.7268 62.1764 61.7268H61.7111V63.6819H62.0914Z" fill="#B2B2B2" style="fill:#B2B2B2;fill:color(display-p3 0.6990 0.6990 0.6990);fill-opacity:1;"/>
<path d="M64.2715 61.2606H66.1705V61.7246H64.7815V62.4341H66.0967V62.8981H64.7815V63.6796H66.242V64.1436H64.2715V61.2583V61.2606Z" fill="#B2B2B2" style="fill:#B2B2B2;fill:color(display-p3 0.6990 0.6990 0.6990);fill-opacity:1;"/>
<path d="M67.3283 61.7267H66.4492V61.2627H68.715V61.7267H67.836V64.148H67.326V61.7267H67.3283Z" fill="#B2B2B2" style="fill:#B2B2B2;fill:color(display-p3 0.6990 0.6990 0.6990);fill-opacity:1;"/>
<path d="M69.0605 61.2601H70.9573V61.7241H69.5705V62.4336H70.8857V62.8976H69.5705V63.6792H71.0311V64.1432H69.0605V61.2578V61.2601Z" fill="#B2B2B2" style="fill:#B2B2B2;fill:color(display-p3 0.6990 0.6990 0.6990);fill-opacity:1;"/>
<path d="M71.5371 61.2601H72.5325C73.0827 61.2601 73.6016 61.438 73.6016 62.0867C73.6016 62.5034 73.3623 62.8075 72.9373 62.8683L73.6978 64.1432H73.0827L72.4184 62.9201H72.0471V64.1432H71.5371V61.2578V61.2601ZM72.443 62.4831C72.7293 62.4831 73.067 62.4584 73.067 62.0845C73.067 61.7421 72.7517 61.7015 72.4877 61.7015H72.0471V62.4831H72.443Z" fill="#B2B2B2" style="fill:#B2B2B2;fill:color(display-p3 0.6990 0.6990 0.6990);fill-opacity:1;"/>
<path d="M74.094 61.2603H74.8702L75.6352 63.2807L76.4091 61.2603H77.1763V64.1456H76.6909V61.749H76.6819L75.8118 64.1456H75.4562L74.5861 61.749H74.5772V64.1456H74.0918V61.2603H74.094Z" fill="#B2B2B2" style="fill:#B2B2B2;fill:color(display-p3 0.6990 0.6990 0.6990);fill-opacity:1;"/>
<path d="M77.8203 61.2603H78.3303V64.1456H77.8203V61.2603Z" fill="#B2B2B2" style="fill:#B2B2B2;fill:color(display-p3 0.6990 0.6990 0.6990);fill-opacity:1;"/>
<path d="M78.9531 61.2603H79.6286L81.0154 63.4023H81.0243V61.2603H81.5343V64.1456H80.8857L79.4698 61.9337H79.4631V64.1456H78.9531V61.2603Z" fill="#B2B2B2" style="fill:#B2B2B2;fill:color(display-p3 0.6990 0.6990 0.6990);fill-opacity:1;"/>
<path d="M83.0994 61.2603H83.54L84.7747 64.1456H84.1909L83.9247 63.4856H82.6833L82.4239 64.1456H81.8535L83.0994 61.2603ZM83.7458 63.0442L83.3052 61.8707L82.8556 63.0442H83.7458Z" fill="#B2B2B2" style="fill:#B2B2B2;fill:color(display-p3 0.6990 0.6990 0.6990);fill-opacity:1;"/>
<path d="M85.3146 61.7267H84.4355V61.2627H86.7014V61.7267H85.8223V64.148H85.3124V61.7267H85.3146Z" fill="#B2B2B2" style="fill:#B2B2B2;fill:color(display-p3 0.6990 0.6990 0.6990);fill-opacity:1;"/>
<path d="M87.0332 61.2603H87.5432V64.1456H87.0332V61.2603Z" fill="#B2B2B2" style="fill:#B2B2B2;fill:color(display-p3 0.6990 0.6990 0.6990);fill-opacity:1;"/>
<path d="M89.5316 61.1883C90.4263 61.1725 91.057 61.7739 91.057 62.6997C91.057 63.6254 90.4263 64.2043 89.5316 64.22C88.6503 64.22 88.0195 63.6164 88.0195 62.7154C88.0195 61.8145 88.6503 61.1883 89.5316 61.1883ZM89.536 63.756C90.131 63.756 90.5224 63.2988 90.5224 62.6839C90.5224 62.1095 90.131 61.6523 89.536 61.6523C88.9411 61.6523 88.5519 62.1073 88.5519 62.6839C88.5519 63.2988 88.9433 63.756 89.536 63.756Z" fill="#B2B2B2" style="fill:#B2B2B2;fill:color(display-p3 0.6990 0.6990 0.6990);fill-opacity:1;"/>
<path d="M91.5374 61.2603H92.2129L93.5997 63.4023H93.6086V61.2603H94.1186V64.1456H93.4699L92.0541 61.9337H92.0451V64.1456H91.5352V61.2603H91.5374Z" fill="#B2B2B2" style="fill:#B2B2B2;fill:color(display-p3 0.6990 0.6990 0.6990);fill-opacity:1;"/>
</g>
<defs>
<linearGradient id="paint0_linear_1185_4888" x1="72.3555" y1="46.5" x2="23.8555" y2="19" gradientUnits="userSpaceOnUse">
<stop stop-color="#B2B2B2" style="stop-color:#B2B2B2;stop-color:color(display-p3 0.6990 0.6990 0.6990);stop-opacity:1;"/>
<stop offset="1" stop-color="#717171" style="stop-color:#717171;stop-color:color(display-p3 0.4423 0.4423 0.4423);stop-opacity:1;"/>
</linearGradient>
<clipPath id="clip0_1185_4888">
<rect width="96.8552" height="67.1624" fill="white" style="fill:white;fill-opacity:1;"/>
</clipPath>
</defs>
</svg>
