<svg width="48" height="48" viewBox="0 0 48 48" fill="none" xmlns="http://www.w3.org/2000/svg">
<path d="M0 10C0 4.47715 4.47715 0 10 0H38C43.5229 0 48 4.47715 48 10V38C48 43.5229 43.5228 48 38 48H10C4.47715 48 0 43.5228 0 38V10Z" fill="url(#paint0_linear_841_6297)"/>
<path d="M23.0194 14.8144C23.0622 14.585 23.184 14.3779 23.3635 14.2288C23.543 14.0797 23.769 13.998 24.0024 13.998C24.2358 13.998 24.4618 14.0797 24.6413 14.2288C24.8208 14.3779 24.9425 14.585 24.9854 14.8144L26.0364 20.3724C26.111 20.7676 26.3031 21.1311 26.5874 21.4154C26.8718 21.6998 27.2352 21.8918 27.6304 21.9664L33.1884 23.0174C33.4178 23.0603 33.625 23.182 33.7741 23.3615C33.9232 23.5411 34.0048 23.7671 34.0048 24.0004C34.0048 24.2338 33.9232 24.4598 33.7741 24.6393C33.625 24.8189 33.4178 24.9406 33.1884 24.9834L27.6304 26.0344C27.2352 26.1091 26.8718 26.3011 26.5874 26.5855C26.3031 26.8698 26.111 27.2333 26.0364 27.6284L24.9854 33.1864C24.9425 33.4158 24.8208 33.623 24.6413 33.7721C24.4618 33.9212 24.2358 34.0028 24.0024 34.0028C23.769 34.0028 23.543 33.9212 23.3635 33.7721C23.184 33.623 23.0622 33.4158 23.0194 33.1864L21.9684 27.6284C21.8937 27.2333 21.7017 26.8698 21.4174 26.5855C21.133 26.3011 20.7695 26.1091 20.3744 26.0344L14.8164 24.9834C14.587 24.9406 14.3798 24.8189 14.2307 24.6393C14.0816 24.4598 14 24.2338 14 24.0004C14 23.7671 14.0816 23.5411 14.2307 23.3615C14.3798 23.182 14.587 23.0603 14.8164 23.0174L20.3744 21.9664C20.7695 21.8918 21.133 21.6998 21.4174 21.4154C21.7017 21.1311 21.8937 20.7676 21.9684 20.3724L23.0194 14.8144Z" stroke="white" stroke-width="2" stroke-linecap="round" stroke-linejoin="round"/>
<path d="M32 14V18" stroke="white" stroke-width="2" stroke-linecap="round" stroke-linejoin="round"/>
<path d="M34 16H30" stroke="white" stroke-width="2" stroke-linecap="round" stroke-linejoin="round"/>
<path d="M16 34C17.1046 34 18 33.1046 18 32C18 30.8954 17.1046 30 16 30C14.8954 30 14 30.8954 14 32C14 33.1046 14.8954 34 16 34Z" stroke="white" stroke-width="2" stroke-linecap="round" stroke-linejoin="round"/>
<defs>
<linearGradient id="paint0_linear_841_6297" x1="0" y1="0" x2="48" y2="48" gradientUnits="userSpaceOnUse">
<stop stop-color="#9810FA"/>
<stop offset="1" stop-color="#E60076"/>
</linearGradient>
</defs>
</svg>
