<svg width="48" height="48" viewBox="0 0 48 48" fill="none" xmlns="http://www.w3.org/2000/svg">
<path d="M0 10C0 4.47715 4.47715 0 10 0H38C43.5229 0 48 4.47715 48 10V38C48 43.5229 43.5228 48 38 48H10C4.47715 48 0 43.5228 0 38V10Z" fill="url(#paint0_linear_841_6287)"/>
<path d="M27.4748 24.8906L28.9898 33.4166C29.0068 33.517 28.9927 33.6202 28.9494 33.7124C28.9062 33.8046 28.8358 33.8813 28.7477 33.9324C28.6597 33.9835 28.5581 34.0065 28.4566 33.9983C28.3551 33.9902 28.2585 33.9512 28.1798 33.8866L24.5998 31.1996C24.427 31.0705 24.217 31.0007 24.0013 31.0007C23.7856 31.0007 23.5756 31.0705 23.4028 31.1996L19.8168 33.8856C19.7381 33.9501 19.6417 33.989 19.5403 33.9972C19.4389 34.0054 19.3375 33.9825 19.2495 33.9315C19.1615 33.8805 19.0911 33.804 19.0477 33.712C19.0044 33.62 18.9901 33.5169 19.0068 33.4166L20.5208 24.8906" stroke="white" stroke-width="2" stroke-linecap="round" stroke-linejoin="round"/>
<path d="M24 26C27.3137 26 30 23.3137 30 20C30 16.6863 27.3137 14 24 14C20.6863 14 18 16.6863 18 20C18 23.3137 20.6863 26 24 26Z" stroke="white" stroke-width="2" stroke-linecap="round" stroke-linejoin="round"/>
<defs>
<linearGradient id="paint0_linear_841_6287" x1="0" y1="0" x2="48" y2="48" gradientUnits="userSpaceOnUse">
<stop stop-color="#155DFC"/>
<stop offset="1" stop-color="#4F39F6"/>
</linearGradient>
</defs>
</svg>
