<svg width="48" height="48" viewBox="0 0 48 48" fill="none" xmlns="http://www.w3.org/2000/svg">
<path d="M0 10C0 4.47715 4.47715 0 10 0H38C43.5229 0 48 4.47715 48 10V38C48 43.5229 43.5228 48 38 48H10C4.47715 48 0 43.5228 0 38V10Z" fill="url(#paint0_linear_841_6253)"/>
<path d="M21.6703 16.1362C21.7254 15.5565 21.9947 15.0182 22.4254 14.6264C22.8562 14.2347 23.4176 14.0176 23.9998 14.0176C24.5821 14.0176 25.1435 14.2347 25.5742 14.6264C26.005 15.0182 26.2742 15.5565 26.3293 16.1362C26.3624 16.5106 26.4853 16.8716 26.6875 17.1885C26.8896 17.5054 27.1652 17.769 27.4908 17.9568C27.8164 18.1447 28.1825 18.2514 28.558 18.2678C28.9336 18.2842 29.3076 18.2099 29.6483 18.0512C30.1774 17.8109 30.777 17.7762 31.3303 17.9536C31.8837 18.1311 32.3512 18.5081 32.6418 19.0113C32.9325 19.5144 33.0256 20.1077 32.903 20.6757C32.7803 21.2437 32.4507 21.7458 31.9783 22.0842C31.6707 22.3 31.4196 22.5868 31.2462 22.9202C31.0729 23.2536 30.9824 23.6239 30.9824 23.9997C30.9824 24.3754 31.0729 24.7457 31.2462 25.0791C31.4196 25.4125 31.6707 25.6993 31.9783 25.9152C32.4507 26.2535 32.7803 26.7556 32.903 27.3236C33.0256 27.8916 32.9325 28.4849 32.6418 28.988C32.3512 29.4912 31.8837 29.8682 31.3303 30.0457C30.777 30.2231 30.1774 30.1884 29.6483 29.9482C29.3076 29.7894 28.9336 29.7151 28.558 29.7315C28.1825 29.7479 27.8164 29.8546 27.4908 30.0425C27.1652 30.2303 26.8896 30.4939 26.6875 30.8108C26.4853 31.1277 26.3624 31.4887 26.3293 31.8632C26.2742 32.4428 26.005 32.9811 25.5742 33.3729C25.1435 33.7646 24.5821 33.9817 23.9998 33.9817C23.4176 33.9817 22.8562 33.7646 22.4254 33.3729C21.9947 32.9811 21.7254 32.4428 21.6703 31.8632C21.6373 31.4886 21.5144 31.1275 21.3122 30.8104C21.11 30.4934 20.8343 30.2298 20.5086 30.0419C20.1828 29.854 19.8166 29.7474 19.4409 29.7311C19.0652 29.7147 18.6911 29.7892 18.3503 29.9482C17.8212 30.1884 17.2217 30.2231 16.6683 30.0457C16.115 29.8682 15.6475 29.4912 15.3568 28.988C15.0661 28.4849 14.973 27.8916 15.0957 27.3236C15.2183 26.7556 15.5479 26.2535 16.0203 25.9152C16.3279 25.6993 16.5791 25.4125 16.7524 25.0791C16.9258 24.7457 17.0163 24.3754 17.0163 23.9997C17.0163 23.6239 16.9258 23.2536 16.7524 22.9202C16.5791 22.5868 16.3279 22.3 16.0203 22.0842C15.5486 21.7456 15.2196 21.2437 15.0972 20.6761C14.9749 20.1085 15.0679 19.5157 15.3583 19.0129C15.6487 18.51 16.1156 18.1331 16.6684 17.9554C17.2212 17.7777 17.8203 17.8118 18.3493 18.0512C18.6901 18.2099 19.0641 18.2842 19.4396 18.2678C19.8152 18.2514 20.1813 18.1447 20.5069 17.9568C20.8325 17.769 21.108 17.5054 21.3102 17.1885C21.5124 16.8716 21.6352 16.5106 21.6683 16.1362" stroke="white" stroke-width="2" stroke-linecap="round" stroke-linejoin="round"/>
<path d="M24 27C25.6569 27 27 25.6569 27 24C27 22.3431 25.6569 21 24 21C22.3431 21 21 22.3431 21 24C21 25.6569 22.3431 27 24 27Z" stroke="white" stroke-width="2" stroke-linecap="round" stroke-linejoin="round"/>
<defs>
<linearGradient id="paint0_linear_841_6253" x1="0" y1="0" x2="48" y2="48" gradientUnits="userSpaceOnUse">
<stop stop-color="#155DFC"/>
<stop offset="1" stop-color="#193CB8"/>
</linearGradient>
</defs>
</svg>
